<?xml version="1.0" encoding="UTF-8"?>
<svg width="401px" height="132px" viewBox="0 0 401 132" version="1.1" xmlns="http://www.w3.org/2000/svg" xmlns:xlink="http://www.w3.org/1999/xlink">
    <!-- Generator: Sketch 61.2 (89653) - https://sketch.com -->
    <title>编组 3</title>
    <desc>Created with Sketch.</desc>
    <defs>
        <filter x="-8.3%" y="-38.5%" width="116.5%" height="176.9%" filterUnits="objectBoundingBox" id="filter-1">
            <feOffset dx="0" dy="2" in="SourceAlpha" result="shadowOffsetOuter1"></feOffset>
            <feGaussianBlur stdDeviation="4" in="shadowOffsetOuter1" result="shadowBlurOuter1"></feGaussianBlur>
            <feColorMatrix values="0 0 0 0 0   0 0 0 0 0   0 0 0 0 0  0 0 0 0.1 0" type="matrix" in="shadowBlurOuter1" result="shadowMatrixOuter1"></feColorMatrix>
            <feMerge>
                <feMergeNode in="shadowMatrixOuter1"></feMergeNode>
                <feMergeNode in="SourceGraphic"></feMergeNode>
            </feMerge>
        </filter>
        <filter x="-39.0%" y="-39.0%" width="178.0%" height="178.0%" filterUnits="objectBoundingBox" id="filter-2">
            <feOffset dx="0" dy="4" in="SourceAlpha" result="shadowOffsetOuter1"></feOffset>
            <feGaussianBlur stdDeviation="8" in="shadowOffsetOuter1" result="shadowBlurOuter1"></feGaussianBlur>
            <feColorMatrix values="0 0 0 0 0   0 0 0 0 0   0 0 0 0 0  0 0 0 0.1 0" type="matrix" in="shadowBlurOuter1" result="shadowMatrixOuter1"></feColorMatrix>
            <feMerge>
                <feMergeNode in="shadowMatrixOuter1"></feMergeNode>
                <feMergeNode in="SourceGraphic"></feMergeNode>
            </feMerge>
        </filter>
        <polygon id="path-3" points="0 -0.000316601119 100.000039 -0.000316601119 100.000039 100 0 100"></polygon>
    </defs>
    <g id="页面-1" stroke="none" stroke-width="1" fill="none" fill-rule="evenodd">
        <g id="加载页" transform="translate(-514.000000, -348.000000)">
            <g id="编组-3" transform="translate(530.000000, 360.000000)">
                <g id="编组-2" filter="url(#filter-1)" transform="translate(135.000000, 30.000000)" fill="#3398FE">
                    <path d="M21.179731,0 L6.39626193,0 C4.64086519,0 3.13543822,0.626927407 1.88118281,1.87797807 C0.626927407,3.13503763 0,4.64046459 0,6.39345778 L0,44.9204504 C0,46.6510104 0.626927407,48.1672533 1.88118281,49.472384 C3.13543822,50.72704 4.64086519,51.3539674 6.39626193,51.3539674 L21.179731,51.3539674 C22.0349961,51.3539674 22.4596243,50.9265351 22.4596243,50.0744747 L22.4596243,46.2003437 C22.4596243,45.3478827 22.0349961,44.9204504 21.179731,44.9204504 L7.67495348,44.9204504 C6.82209185,44.9204504 6.39626193,44.4934187 6.39626193,43.6397559 L6.39626193,7.67535407 C6.39626193,6.82089007 6.82209185,6.39345778 7.67495348,6.39345778 L21.179731,6.39345778 C22.0349961,6.39345778 22.4596243,5.96762785 22.4596243,5.115968 L22.4596243,1.276288 C22.4596243,0.427031704 22.0349961,0 21.179731,0" id="Fill-22"></path>
                    <path d="M47.8459534,43.6426802 C47.8459534,44.4959424 47.4213253,44.92017 46.5684636,44.92017 L36.2608156,44.92017 C35.4075534,44.92017 34.9789193,44.4959424 34.9789193,43.6426802 L34.9789193,7.67747721 C34.9789193,6.82421499 35.4075534,6.39558092 36.2608156,6.39558092 L46.5684636,6.39558092 C47.4213253,6.39558092 47.8459534,6.82421499 47.8459534,7.67747721 L47.8459534,43.6426802 Z M52.3610325,1.8809024 C51.1067771,0.627047585 49.6045549,0.00212314074 47.8459534,0.00212314074 L34.9789193,0.00212314074 C33.2243238,0.00212314074 31.7221016,0.627047585 30.4642408,1.8809024 C29.210386,3.13475721 28.5854616,4.64098536 28.5854616,6.39558092 L28.5854616,44.92017 C28.5854616,46.6511305 29.210386,48.1693765 30.4642408,49.4753083 C31.7221016,50.7287625 33.2243238,51.3540876 34.9789193,51.3540876 L47.8459534,51.3540876 C49.6045549,51.3540876 51.1067771,50.7287625 52.3610325,49.4753083 C53.6184927,48.1693765 54.2434171,46.6511305 54.2434171,44.92017 L54.2434171,6.39558092 C54.2434171,4.64098536 53.6184927,3.13475721 52.3610325,1.8809024 L52.3610325,1.8809024 Z" id="Fill-24"></path>
                    <path d="M81.5472628,-6.84226338e-15 L66.7637938,-6.84226338e-15 C65.008397,-6.84226338e-15 63.5029701,0.626927407 62.2487147,1.87797807 C60.9944593,3.13503763 60.3675319,4.64046459 60.3675319,6.39345778 L60.3675319,44.9204504 C60.3675319,46.6510104 60.9944593,48.1672533 62.2487147,49.472384 C63.5029701,50.72704 65.008397,51.3539674 66.7637938,51.3539674 L81.5472628,51.3539674 C82.402528,51.3539674 82.8271561,50.9265351 82.8271561,50.0744747 L82.8271561,46.2003437 C82.8271561,45.3478827 82.402528,44.9204504 81.5472628,44.9204504 L68.0424853,44.9204504 C67.1900243,44.9204504 66.7637938,44.4934187 66.7637938,43.6397559 L66.7637938,7.67535407 C66.7637938,6.82089007 67.1900243,6.39345778 68.0424853,6.39345778 L81.5472628,6.39345778 C82.402528,6.39345778 82.8271561,5.96762785 82.8271561,5.115968 L82.8271561,1.276288 C82.8271561,0.427031704 82.402528,-6.84226338e-15 81.5472628,-6.84226338e-15" id="Fill-26"></path>
                    <path d="M108.21661,43.6426802 C108.21661,44.4959424 107.787976,44.92017 106.934714,44.92017 L96.6270656,44.92017 C95.7738034,44.92017 95.3495758,44.4959424 95.3495758,43.6426802 L95.3495758,7.67747721 C95.3495758,6.82421499 95.7738034,6.39558092 96.6270656,6.39558092 L106.934714,6.39558092 C107.787976,6.39558092 108.21661,6.82421499 108.21661,7.67747721 L108.21661,43.6426802 Z M112.731288,1.8809024 C111.473428,0.627047585 109.971205,0.00212314074 108.21661,0.00212314074 L95.3495758,0.00212314074 C93.5949803,0.00212314074 92.0887521,0.627047585 90.8344967,1.8809024 C89.5806419,3.13475721 88.9521121,4.64098536 88.9521121,6.39558092 L88.9521121,44.92017 C88.9521121,46.6511305 89.5806419,48.1693765 90.8344967,49.4753083 C92.0887521,50.7287625 93.5949803,51.3540876 95.3495758,51.3540876 L108.21661,51.3540876 C109.971205,51.3540876 111.473428,50.7287625 112.731288,49.4753083 C113.984743,48.1693765 114.614074,46.6511305 114.614074,44.92017 L114.614074,6.39558092 C114.614074,4.64098536 113.984743,3.13475721 112.731288,1.8809024 L112.731288,1.8809024 Z" id="Fill-28"></path>
                    <path d="M145.11597,-6.84226338e-15 L127.130164,-6.84226338e-15 C125.377171,-6.84226338e-15 123.871744,0.626927407 122.616287,1.87797807 C121.362031,3.13503763 120.734703,4.64046459 120.734703,6.39345778 L120.734703,19.2628954 C120.734703,21.0162892 121.362031,22.5237191 122.616287,23.7751704 C123.871744,25.0294258 125.377171,25.6571544 127.130164,25.6571544 L138.716904,25.6571544 C139.572169,25.6571544 139.9988,26.0813819 139.9988,26.933843 L139.9988,43.6397559 C139.9988,44.4934187 139.572169,44.9204504 138.716904,44.9204504 L122.014597,44.9204504 C121.160934,44.9204504 120.734703,45.3478827 120.734703,46.2003437 L120.734703,50.0744747 C120.734703,50.9265351 121.160934,51.3539674 122.014597,51.3539674 L139.9988,51.3539674 C141.753396,51.3539674 143.258823,50.72704 144.511877,49.472384 C145.767734,48.1672533 146.39346,46.6510104 146.39346,44.9204504 L146.39346,25.6571544 C146.39346,23.9009564 145.767734,22.3967313 144.511877,21.1416747 C143.258823,19.8878199 141.753396,19.2628954 139.9988,19.2628954 L128.410057,19.2628954 C127.557596,19.2628954 127.130164,18.8354631 127.130164,17.9818003 L127.130164,7.67535407 C127.130164,6.82089007 127.557596,6.39345778 128.410057,6.39345778 L145.11597,6.39345778 C145.968431,6.39345778 146.39346,5.96762785 146.39346,5.115968 L146.39346,1.276288 C146.39346,0.427031704 145.968431,-6.84226338e-15 145.11597,-6.84226338e-15" id="Fill-30"></path>
                    <path d="M207.738041,-2.13162821e-14 L192.950967,-2.13162821e-14 C191.196772,-2.13162821e-14 189.692546,0.626927407 188.435887,1.87797807 C187.182834,3.13503763 186.555506,4.64046459 186.555506,6.39345778 L186.555506,44.9204504 C186.555506,46.6510104 187.182834,48.1672533 188.435887,49.472384 C189.692546,50.72704 191.196772,51.3539674 192.950967,51.3539674 L207.738041,51.3539674 C208.590903,51.3539674 209.018335,50.9265351 209.018335,50.0744747 L209.018335,46.2003437 C209.018335,45.3478827 208.590903,44.9204504 207.738041,44.9204504 L194.23086,44.9204504 C193.378399,44.9204504 192.950967,44.4934187 192.950967,43.6397559 L192.950967,7.67535407 C192.950967,6.82089007 193.378399,6.39345778 194.23086,6.39345778 L207.738041,6.39345778 C208.590903,6.39345778 209.018335,5.96762785 209.018335,5.115968 L209.018335,1.276288 C209.018335,0.427031704 208.590903,-2.13162821e-14 207.738041,-2.13162821e-14" id="Fill-32"></path>
                    <path d="M240.490085,-2.13162821e-14 L217.390313,-2.13162821e-14 C216.539054,-2.13162821e-14 216.109218,0.427031704 216.109218,1.276288 L216.109218,50.0744747 C216.109218,50.9265351 216.539054,51.3539674 217.390313,51.3539674 L240.490085,51.3539674 C241.344148,51.3539674 241.769978,50.9265351 241.769978,50.0744747 L241.769978,46.2003437 C241.769978,45.3478827 241.344148,44.9204504 240.490085,44.9204504 L222.507884,44.9204504 L222.507884,25.6571544 L234.095024,25.6571544 C234.947485,25.6571544 235.372915,25.231725 235.372915,24.3776616 L235.372915,20.5403852 C235.372915,19.6895265 234.947485,19.2628954 234.095024,19.2628954 L222.507884,19.2628954 L222.507884,6.39345778 L240.490085,6.39345778 C241.344148,6.39345778 241.769978,5.96762785 241.769978,5.115968 L241.769978,1.276288 C241.769978,0.427031704 241.344148,-2.13162821e-14 240.490085,-2.13162821e-14" id="Fill-34"></path>
                    <path d="M178.235903,51.3540876 L174.179502,51.3540876 C173.535349,51.3540876 173.012976,50.8317148 173.012976,50.187562 L173.012976,1.16824818 C173.012976,0.523694696 173.535349,0.00172254815 174.179502,0.00172254815 L178.235903,0.00172254815 C178.880055,0.00172254815 179.402428,0.523694696 179.402428,1.16824818 L179.402428,50.187562 C179.402428,50.8317148 178.880055,51.3540876 178.235903,51.3540876" id="Fill-36"></path>
                </g>
                <g id="编组" filter="url(#filter-2)">
                    <g id="编组备份-7">
                        <mask id="mask-4" fill="white">
                            <use xlink:href="#path-3"></use>
                        </mask>
                        <g id="Clip-16"></g>
                        <path d="M49.8237963,100.000311 C77.4376852,100.096296 99.9025,77.7907407 100.000039,50.1759259 C100.096944,22.562037 77.790463,0.0972222222 50.1765741,-0.000316601119 C22.5626852,-0.0972222222 0.0978703704,22.2092593 -0.000594365826,49.8240741 C-0.0975,77.437963 22.2099074,99.9027778 49.8237963,100.000311" id="Fill-15" fill="#FFFFFF" mask="url(#mask-4)"></path>
                    </g>
                    <polygon id="Fill-17备份-7" fill="#88DDFF" points="72.5 62.5195511 61.3888889 71.9444444 66.9277639 24.1666667"></polygon>
                    <polygon id="Fill-19备份-7" fill="#1764FF" points="65.8333333 33.2876481 61.3335439 72.2222222 43.6111111 15"></polygon>
                    <polygon id="Fill-21备份-6" fill="#88DDFF" points="61.3888889 72.2128387 45.6743053 85 21.1111111 47.5"></polygon>
                    <polygon id="Fill-23备份-7" fill="#389BFE" points="61.3888889 72.2222222 28.8888889 52.1773632 46.7024914 24.7222222"></polygon>
                    <path d="M62.3853177,62.8984038 C62.5951697,62.8984038 78.6111111,54.4444444 78.6111111,54.4444444 L60.5555556,78.3333333 L62.3853177,62.8984038 Z" id="Fill-25备份-6" fill="#1FB4FF"></path>
                    <polygon id="Fill-27备份-6" fill="#2A7FD4" points="45.8333333 85 60.6260737 78.4044512 61.3888889 72.2222222"></polygon>
                </g>
            </g>
        </g>
    </g>
</svg>